<svg xmlns="http://www.w3.org/2000/svg" xmlns:xlink="http://www.w3.org/1999/xlink" width="311" height="99" viewBox="0 0 311 99">
    <defs>
        <path id="a" d="M44.976 5.72a44.548 44.548 0 0 1 3.248-.12c15.95.001 29.877 8.638 37.366 21.485.674 1.155-.187 2.607-1.525 2.607h-35.84c-11.278 0-20.274 9.758-18.996 21.287.974 8.784 8.1 15.872 16.894 16.81 10.052 1.07 18.728-5.654 20.76-14.87h-5.338a1.6 1.6 0 0 1-1.6-1.599v-8.415a1.6 1.6 0 0 1 1.6-1.6H86.956l.003.026h6.882c.86 0 1.558.697 1.558 1.557V72.95c0 .86-.698 1.558-1.558 1.558h-8.26c-.862 0-1.56-.698-1.56-1.558v-7.213c-5.26 15.436-17.942 26.257-35.797 26.257C24.368 91.993 5.026 72.679 5 48.844v-.103c.001-1.019.038-2.047.11-3.08C6.61 24.445 23.752 7.268 44.977 5.72zm51.86 34.187c5.615-5.881 13.53-9.552 22.306-9.552 17.032 0 30.839 13.798 30.839 30.819 0 17.02-13.807 30.819-30.839 30.819-11.168 0-20.949-5.934-26.36-14.818h1.059a4.233 4.233 0 0 0 4.23-4.226V42.89a4.211 4.211 0 0 0-1.236-2.982zm8.668 21.267c0 7.528 6.105 13.63 13.638 13.63 7.533 0 13.64-6.102 13.64-13.63 0-7.528-6.107-13.63-13.64-13.63s-13.638 6.102-13.638 13.63zm162.98-28.92a31.65 31.65 0 0 1 2.598-.107c7.478 0 14.422 2.67 19.763 7.207l1.13-4.634a1.1 1.1 0 0 1 1.068-.838h10.858c.607 0 1.099.492 1.099 1.098V90.3c0 .607-.492 1.098-1.1 1.098h-11.956a1.098 1.098 0 0 1-1.099-1.098v-4.507C285.504 90.331 278.56 93 271.082 93c-17.515 0-31.47-14.52-30.536-32.09.802-15.086 12.873-27.417 27.938-28.656zm-99.616 6.525c4.418-4.435 11.24-6.365 18.062-6.365 2.808 0 5.617.378 8.267 1.133a1.353 1.353 0 0 1 .873 1.846l-5.413 12.255c-.282.639-1.01.96-1.669.724-9.313-3.33-18.451 2.356-20.19 11.122a1.482 1.482 0 0 0-.029.288v30.27c0 .744-.603 1.346-1.346 1.346h-13.999a1.346 1.346 0 0 1-1.347-1.346V35.228c0-.744.603-1.346 1.347-1.346h10.667c.564 0 1.07.352 1.264.882l1.299 3.534a1.343 1.343 0 0 0 2.214.481zM221.041 5h14.689c.664 0 1.202.538 1.202 1.201v83.996c0 .664-.538 1.201-1.202 1.201h-14.689a1.201 1.201 0 0 1-1.201-1.2V6.2c0-.663.538-1.201 1.201-1.201zm-22.982 9.836c0-5.1 4.137-9.235 9.24-9.235 5.105 0 9.243 4.135 9.243 9.235s-4.138 9.236-9.242 9.236c-5.104 0-9.241-4.135-9.241-9.236zm1.786 18.663h14.91c.64 0 1.159.518 1.159 1.158V90.24c0 .64-.52 1.157-1.16 1.157h-14.909c-.64 0-1.158-.518-1.158-1.157V34.657c0-.64.518-1.158 1.158-1.158zm61.166 40.15c-2.804-3.069-4.406-6.938-4.406-11.075s1.602-8.141 4.406-11.076c2.938-2.937 6.677-4.538 10.683-4.538s7.745 1.601 10.55 4.538c2.938 2.935 4.406 6.939 4.406 11.076 0 4.137-1.468 8.006-4.407 11.076-2.804 2.936-6.543 4.537-10.549 4.537-4.006 0-7.745-1.601-10.683-4.537z"/>
        <linearGradient id="c" x1="0%" y1="50%" y2="50%">
            <stop offset="0%" stop-color="#10C0C6"/>
            <stop offset="100%" stop-color="#4DDE90"/>
        </linearGradient>
    </defs>
    <g fill="none" fill-rule="evenodd">
        <mask id="b" fill="#fff">
            <use xlink:href="#a"/>
        </mask>
        <use fill="#10C0C6" xlink:href="#a"/>
        <g fill="url(#c)" mask="url(#b)">
            <path d="M0 0h311v99H0z"/>
        </g>
    </g>
</svg>
